/vscmnt/brussel_pixiu_data/_data_brussel/112/vsc11236/PredSimResults/SUBJ11opt3D/weighted-LRposFixed/expIG/worker_04.mot
version=1
nRows=7
nColumns=50
inDegrees=yes
endheader
                time	         pelvis_tilt	         pelvis_list	     pelvis_rotation	           pelvis_tx	           pelvis_ty	           pelvis_tz	       hip_flexion_r	     hip_adduction_r	      hip_rotation_r	        knee_angle_r	       ankle_angle_r	         mtp_angle_r	       hip_flexion_l	     hip_adduction_l	      hip_rotation_l	        knee_angle_l	       ankle_angle_l	         mtp_angle_l	    lumbar_extension	      lumbar_bending	     lumbar_rotation	 ercspn_r/activation	 intobl_r/activation	 extobl_r/activation	    abd_r/activation	    add_r/activation	hamstrings_r/activation	bifemsh_r/activation	glut_max_r/activation	iliopsoas_r/activation	rect_fem_r/activation	  vasti_r/activation	gastroc_r/activation	 soleus_r/activation	tib_ant_r/activation	 ercspn_l/activation	 intobl_l/activation	 extobl_l/activation	    abd_l/activation	    add_l/activation	hamstrings_l/activation	bifemsh_l/activation	glut_max_l/activation	iliopsoas_l/activation	rect_fem_l/activation	  vasti_l/activation	gastroc_l/activation	 soleus_l/activation	tib_ant_l/activation	
          1.41929453	         -2.40272339	         -1.31088626	          6.00484452	          1.43348747	          0.94353485	         -0.00488416	         30.34468811	         -1.43650989	         -3.33256750	         -9.15133233	          1.77017879	          0.21936777	        -13.29007269	         -3.15071071	         -0.44607357	        -11.59662716	         13.74098123	         27.70178920	        -14.41908767	         -2.94126985	         -3.40914190	          0.02771447	          0.28933825	          0.07698513	          0.01000001	          0.19838869	          0.04101674	          0.14974977	          0.02857407	          0.11990530	          0.04636203	          0.02231989	          0.01000001	          0.00999999	          0.39728235	          0.01000004	          0.01000002	          0.01000001	          0.04484067	          0.01000009	          0.02199421	          0.31787415	          0.03495541	          0.21540643	          0.01000012	          0.01000002	          0.17448658	          0.35210418	          0.01529122	
          1.43348747	         -2.57756283	         -1.37369599	          6.12429713	          1.45165551	          0.94111636	         -0.00352368	         30.30448174	         -1.21418771	         -3.51138281	        -10.37769410	          1.25943724	          0.23471690	        -13.82963168	         -3.41448699	         -0.79534388	        -12.26247536	         13.12181941	         29.46259128	        -13.96598672	         -2.40204941	         -3.62481190	          0.02241280	          0.23398853	          0.06225805	          0.01000000	          0.24831048	          0.03758369	          0.12110304	          0.07853456	          0.09696769	          0.03749310	          0.01805015	          0.01236589	          0.01236596	          0.41630903	          0.01211379	          0.01000004	          0.01000003	          0.03626275	          0.05051369	          0.02815235	          0.28145027	          0.02826854	          0.24455373	          0.01000019	          0.01000003	          0.15653206	          0.33531816	          0.01236604	
          1.44768042	         -2.72887417	         -1.46003560	          6.22774024	          1.47036166	          0.93896172	         -0.00211185	         30.13578074	         -0.99781831	         -3.56935125	        -11.73344221	          0.80366848	          0.20493791	        -14.25784419	         -3.71374521	         -1.15062621	        -13.20166253	         12.35259651	         31.32839823	        -13.46433692	         -1.82461006	         -3.84304326	          0.01812532	          0.18922708	          0.05034822	          0.02702855	          0.20199565	          0.05029575	          0.09793635	          0.11791790	          0.07841799	          0.03032077	          0.01459720	          0.01000034	          0.01000038	          0.47751260	          0.01000013	          0.01000001	          0.01000011	          0.02932577	          0.04085064	          0.03384193	          0.24056821	          0.02286084	          0.19777148	          0.01000006	          0.01000002	          0.12658784	          0.31260530	          0.01000045	
          1.46187336	         -2.85984993	         -1.55110649	          6.30290851	          1.48927499	          0.93728007	         -0.00061010	         29.92280417	         -0.78837685	         -3.72910609	        -13.02059917	          0.13380489	          0.18197869	        -14.48733628	         -4.02702219	         -1.52135237	        -14.51409730	         11.38382034	         33.30813159	        -12.95287906	         -1.23915086	         -4.05093596	          0.02456874	          0.15302838	          0.04071672	          0.06198423	          0.24139200	          0.05143109	          0.07920139	          0.12603461	          0.06341680	          0.02452049	          0.01884697	          0.01000002	          0.01000000	          0.53406086	          0.02916435	          0.01000001	          0.01000003	          0.02371582	          0.03303611	          0.03541319	          0.19585054	          0.01848762	          0.17424678	          0.01000007	          0.01000001	          0.10237187	          0.28462451	          0.01000000	
          1.47606631	         -2.96961415	         -1.63628232	          6.34806381	          1.50815919	          0.93619672	          0.00097675	         29.76763137	         -0.60148665	         -3.99351785	        -14.44434083	         -0.46705400	          0.14232812	        -14.45619594	         -4.34404267	         -1.90454877	        -16.27405932	         10.18559576	         35.38090737	        -12.45817610	         -0.66047477	         -4.24340536	          0.02895936	          0.12375440	          0.03292770	          0.09032373	          0.27417421	          0.05841689	          0.06405039	          0.11514525	          0.05128531	          0.01982980	          0.09833298	          0.01000003	          0.01000000	          0.57528701	          0.05315267	          0.01000001	          0.01000003	          0.01917904	          0.07970222	          0.03989729	          0.15839775	          0.01495098	          0.14091399	          0.01000004	          0.01000000	          0.08278836	          0.24918993	          0.01000000	
          1.49025925	         -3.05918221	         -1.71191904	          6.36286896	          1.52686226	          0.93584172	          0.00262131	         29.62008971	         -0.43138738	         -4.31215269	        -15.94017200	         -0.77993507	          0.09016521	        -14.10916240	         -4.66088691	         -2.30380405	        -18.54681487	          8.73234152	         37.46200888	        -11.99277847	         -0.09345359	         -4.41556266	          0.02341979	          0.10008046	          0.02662871	          0.10795553	          0.29336842	          0.06092965	          0.05179775	          0.12986102	          0.04147455	          0.01603642	          0.15977408	          0.01000002	          0.01000000	          0.57801665	          0.07726473	          0.01000001	          0.01000003	          0.01551013	          0.14090967	          0.05211746	          0.12809754	          0.01209090	          0.11395753	          0.01000003	          0.01000000	          0.06695114	          0.20152046	          0.01000000	
          1.50445220	         -3.13035947	         -1.77680091	          6.34489194	          1.54519298	          0.93632589	          0.00428855	         29.42507990	         -0.26543582	         -4.62586280	        -17.43105285	         -0.61847431	          0.04895782	        -13.38828824	         -4.97702401	         -2.71921935	        -21.40046923	          7.04643694	         39.32241843	        -11.57394706	          0.46216969	         -4.56077576	          0.01893970	          0.08093530	          0.02153470	          0.12109150	          0.31030187	          0.06577603	          0.04188906	          0.12777504	          0.03354056	          0.01296871	          0.20103370	          0.01000002	          0.01000000	          0.52485869	          0.08974867	          0.01000002	          0.01000003	          0.01254308	          0.19279746	          0.06953057	          0.11063794	          0.01000000	          0.09215774	          0.01000001	          0.01000000	          0.05414353	          0.16297005	          0.01000001	
